<?xml version="1.0" encoding="utf-8"?>
<svg viewBox="1 2 375 325" xmlns="http://www.w3.org/2000/svg">
  <g transform="matrix(1, 0, 0, 1, -38.504463, 72.54464)">
    <path d="M 39.621 253.893 L 227.121 -70.857 L 414.621 253.893 L 39.621 253.893 Z M 39.621 253.893" fill-opacity="1" fill-rule="nonzero" style="fill: rgb(45, 46, 46); transform-box: fill-box; transform-origin: 50% 50%;"/>
    <g>
      <path d="M 59.976 242.131 L 227.121 -47.365 L 394.265 242.131 L 59.976 242.131 Z M 59.976 242.131" fill-opacity="1" fill-rule="nonzero" style="transform-box: fill-box; transform-origin: 50% 50%; fill: rgb(255, 255, 255);"/>
      <path d="M 334.746 130.323 L 159.796 69.541 L 233.574 239.358 L 258.687 181.713 L 327.476 245.522 L 347.867 223.412 L 279.148 159.772 L 334.746 130.323 Z M 334.746 130.323" fill-opacity="1" fill-rule="nonzero" style="fill: rgb(45, 46, 46); transform-box: fill-box; transform-origin: 50% 50%;"/>
      <path d="M 329.925 251.53 C 329.238 251.807 328.484 251.916 327.726 252.022 C 325.972 252.139 324.281 251.424 323.038 250.33 L 260.996 192.776 L 239.609 241.901 C 238.593 244.319 236.23 245.881 233.581 245.76 C 230.999 245.811 228.718 244.139 227.57 241.803 L 153.863 72.158 C 152.882 69.756 153.347 66.967 154.988 65.1 C 156.796 63.162 159.578 62.627 161.925 63.475 L 336.874 124.252 C 339.218 125.1 340.953 127.393 341.175 129.905 C 341.398 132.412 340.038 134.967 337.706 136.119 L 290.093 161.116 L 352.136 218.67 C 354.769 221.201 354.964 225.123 352.437 227.752 L 332.046 249.862 C 331.57 250.658 330.781 251.178 329.925 251.53 Z M 256.242 175.705 C 256.581 175.565 256.925 175.428 257.339 175.459 C 259.367 175.033 261.57 175.537 263.027 177.143 L 327.007 236.51 L 338.687 223.948 L 274.636 164.412 C 273.081 163.045 272.413 160.916 272.574 158.85 C 272.73 156.783 274.199 154.987 275.945 153.873 L 318.382 131.385 L 171.593 80.342 L 233.499 222.983 L 252.581 178.998 C 253.433 177.651 254.695 176.334 256.242 175.705 Z M 256.242 175.705" fill-opacity="1" fill-rule="nonzero" style="fill: rgb(45, 46, 46); transform-box: fill-box; transform-origin: 50% 50%;"/>
      <path d="M 181.448 156.711 L 170.827 143.491 L 203.961 96.322 L 225.48 113.643 C 225.635 113.395 249.832 70.155 243.27 80.654 L 265.921 82.548 L 229.488 136.701 L 209.594 120.693 L 181.448 156.711 Z M 190.376 153.921" fill-opacity="1" fill-rule="nonzero" style="transform-box: fill-box; transform-origin: 50% 50%; fill: rgb(255, 255, 255);"/>
    </g>
  </g>
</svg>